<svg width="50" height="50" viewBox="0 0 50 50" fill="none" xmlns="http://www.w3.org/2000/svg">
<g clip-path="url(#clip0_998_105)">
<path d="M10.417 10.4166C10.417 9.86405 10.6365 9.33415 11.0272 8.94345C11.4179 8.55275 11.9478 8.33325 12.5003 8.33325H16.667C17.2195 8.33325 17.7494 8.55275 18.1401 8.94345C18.5308 9.33415 18.7503 9.86405 18.7503 10.4166V39.5833C18.7503 40.1358 18.5308 40.6657 18.1401 41.0564C17.7494 41.4471 17.2195 41.6666 16.667 41.6666H12.5003C11.9478 41.6666 11.4179 41.4471 11.0272 41.0564C10.6365 40.6657 10.417 40.1358 10.417 39.5833V10.4166Z" stroke="#2A2D31" stroke-width="3" stroke-linecap="round" stroke-linejoin="round"/>
<path d="M18.75 10.4166C18.75 9.86405 18.9695 9.33415 19.3602 8.94345C19.7509 8.55275 20.2808 8.33325 20.8333 8.33325H25C25.5525 8.33325 26.0824 8.55275 26.4731 8.94345C26.8638 9.33415 27.0833 9.86405 27.0833 10.4166V39.5833C27.0833 40.1358 26.8638 40.6657 26.4731 41.0564C26.0824 41.4471 25.5525 41.6666 25 41.6666H20.8333C20.2808 41.6666 19.7509 41.4471 19.3602 41.0564C18.9695 40.6657 18.75 40.1358 18.75 39.5833V10.4166Z" stroke="#2A2D31" stroke-width="3" stroke-linecap="round" stroke-linejoin="round"/>
<path d="M10.417 16.6667H18.7503" stroke="#2A2D31" stroke-width="3" stroke-linecap="round" stroke-linejoin="round"/>
<path d="M18.75 33.3333H27.0833" stroke="#2A2D31" stroke-width="3" stroke-linecap="round" stroke-linejoin="round"/>
<path d="M28.7559 9.50005L33.3059 8.39588C34.4768 8.11463 35.6663 8.79171 35.9768 9.92088L43.6747 37.875C43.8105 38.3868 43.7503 38.9309 43.506 39.4006C43.2617 39.8704 42.8508 40.232 42.3538 40.4146L42.0768 40.5L37.5268 41.6042C36.3559 41.8855 35.1663 41.2084 34.8559 40.0792L27.158 12.125C27.0222 11.6133 27.0823 11.0692 27.3267 10.5995C27.571 10.1297 27.9819 9.76812 28.4788 9.58546L28.7559 9.50005Z" stroke="#2A2D31" stroke-width="3" stroke-linecap="round" stroke-linejoin="round"/>
<path d="M29.167 18.7501L37.5003 16.6667" stroke="#2A2D31" stroke-width="3" stroke-linecap="round" stroke-linejoin="round"/>
<path d="M33.333 33.3334L41.5059 31.2917" stroke="#2A2D31" stroke-width="3" stroke-linecap="round" stroke-linejoin="round"/>
</g>
<defs>
<clipPath id="clip0_998_105">
<rect width="50" height="50" fill="white"/>
</clipPath>
</defs>
</svg>
