<svg width="50" height="50" viewBox="0 0 50 50" fill="none" xmlns="http://www.w3.org/2000/svg">
<g clip-path="url(#clip0_552_61)">
<path d="M16.6667 39.5835H10.4167C9.3116 39.5835 8.25179 39.1445 7.47039 38.3631C6.68899 37.5817 6.25 36.5219 6.25 35.4169V14.5835C6.25 13.4785 6.68899 12.4187 7.47039 11.6373C8.25179 10.8559 9.3116 10.4169 10.4167 10.4169H39.5833C40.6884 10.4169 41.7482 10.8559 42.5296 11.6373C43.311 12.4187 43.75 13.4785 43.75 14.5835V37.5002C43.75 38.0527 43.5305 38.5826 43.1398 38.9733C42.7491 39.364 42.2192 39.5835 41.6667 39.5835" stroke="#2A2D31" stroke-width="3" stroke-linecap="round" stroke-linejoin="round"/>
<path d="M22.917 35.4165C22.917 34.8639 23.1365 34.334 23.5272 33.9433C23.9179 33.5526 24.4478 33.3331 25.0003 33.3331H33.3337C33.8862 33.3331 34.4161 33.5526 34.8068 33.9433C35.1975 34.334 35.417 34.8639 35.417 35.4165V37.4998C35.417 38.0523 35.1975 38.5822 34.8068 38.9729C34.4161 39.3636 33.8862 39.5831 33.3337 39.5831H25.0003C24.4478 39.5831 23.9179 39.3636 23.5272 38.9729C23.1365 38.5822 22.917 38.0523 22.917 37.4998V35.4165Z" stroke="#2A2D31" stroke-width="3" stroke-linecap="round" stroke-linejoin="round"/>
</g>
<defs>
<clipPath id="clip0_552_61">
<rect width="50" height="50" fill="white"/>
</clipPath>
</defs>
</svg>
