<svg width="50" height="50" viewBox="0 0 50 50" fill="none" xmlns="http://www.w3.org/2000/svg">
<g clip-path="url(#clip0_998_117)">
<path d="M6.25 8.33333C6.25 7.7808 6.46949 7.25089 6.86019 6.86019C7.25089 6.46949 7.7808 6.25 8.33333 6.25H41.6667C42.2192 6.25 42.7491 6.46949 43.1398 6.86019C43.5305 7.25089 43.75 7.7808 43.75 8.33333V12.5C43.75 13.0525 43.5305 13.5824 43.1398 13.9731C42.7491 14.3638 42.2192 14.5833 41.6667 14.5833H8.33333C7.7808 14.5833 7.25089 14.3638 6.86019 13.9731C6.46949 13.5824 6.25 13.0525 6.25 12.5V8.33333Z" stroke="#2A2D31" stroke-width="3" stroke-linecap="round" stroke-linejoin="round"/>
<path d="M16.667 29.1666C16.667 31.3767 17.545 33.4963 19.1078 35.0591C20.6706 36.6219 22.7902 37.4999 25.0003 37.4999C27.2105 37.4999 29.3301 36.6219 30.8929 35.0591C32.4557 33.4963 33.3337 31.3767 33.3337 29.1666C33.3337 26.9564 32.4557 24.8368 30.8929 23.274C29.3301 21.7112 27.2105 20.8333 25.0003 20.8333C22.7902 20.8333 20.6706 21.7112 19.1078 23.274C17.545 24.8368 16.667 26.9564 16.667 29.1666Z" stroke="#2A2D31" stroke-width="3" stroke-linecap="round" stroke-linejoin="round"/>
<path d="M39.5837 14.5833V29.1666C39.5837 33.0343 38.0472 36.7437 35.3123 39.4786C32.5774 42.2135 28.8681 43.7499 25.0003 43.7499C21.1326 43.7499 17.4233 42.2135 14.6884 39.4786C11.9534 36.7437 10.417 33.0343 10.417 29.1666V14.5833" stroke="#2A2D31" stroke-width="3" stroke-linecap="round" stroke-linejoin="round"/>
<path d="M25 29.1667H25.0208" stroke="#2A2D31" stroke-width="3" stroke-linecap="round" stroke-linejoin="round"/>
</g>
<defs>
<clipPath id="clip0_998_117">
<rect width="50" height="50" fill="white"/>
</clipPath>
</defs>
</svg>
