<svg width="50" height="50" viewBox="0 0 50 50" fill="none" xmlns="http://www.w3.org/2000/svg">
<path d="M8.33301 10.417H12.4997" stroke="#2A2D31" stroke-width="3" stroke-linecap="round" stroke-linejoin="round"/>
<path d="M10.417 8.33301V12.4997" stroke="#2A2D31" stroke-width="3" stroke-linecap="round" stroke-linejoin="round"/>
<path d="M23.9587 8.33301L22.917 12.4997" stroke="#2A2D31" stroke-width="3" stroke-linecap="round" stroke-linejoin="round"/>
<path d="M37.5 10.417H41.6667" stroke="#2A2D31" stroke-width="3" stroke-linecap="round" stroke-linejoin="round"/>
<path d="M39.583 8.33301V12.4997" stroke="#2A2D31" stroke-width="3" stroke-linecap="round" stroke-linejoin="round"/>
<path d="M31.2503 18.75L29.167 20.8333" stroke="#2A2D31" stroke-width="3" stroke-linecap="round" stroke-linejoin="round"/>
<path d="M37.5 27.0837L41.6667 26.042" stroke="#2A2D31" stroke-width="3" stroke-linecap="round" stroke-linejoin="round"/>
<path d="M37.5 39.583H41.6667" stroke="#2A2D31" stroke-width="3" stroke-linecap="round" stroke-linejoin="round"/>
<path d="M39.583 37.5V41.6667" stroke="#2A2D31" stroke-width="3" stroke-linecap="round" stroke-linejoin="round"/>
<path d="M29.1664 34.4122L15.5873 20.833L6.44142 40.7913C6.26065 41.1788 6.2035 41.6126 6.27772 42.0337C6.35194 42.4548 6.55393 42.8429 6.85629 43.1452C7.15864 43.4476 7.54671 43.6496 7.96782 43.7238C8.38892 43.798 8.82267 43.7409 9.21017 43.5601L29.1664 34.4122Z" stroke="#2A2D31" stroke-width="3" stroke-linecap="round" stroke-linejoin="round"/>
</svg>
