<svg width="1320" height="200" viewBox="0 0 1320 200" fill="none" xmlns="http://www.w3.org/2000/svg">
<path d="M80 40C80 50.5058 82.0693 60.9086 86.0896 70.6147C90.11 80.3207 96.0028 89.1399 103.431 96.5685C110.86 103.997 119.679 109.89 129.385 113.91C139.091 117.931 149.494 120 160 120L160 40L80 40Z" fill="#6DA2D2"/>
<path d="M960 120C960 109.494 957.931 99.0914 953.91 89.3853C949.89 79.6793 943.997 70.8601 936.569 63.4315C929.14 56.0028 920.321 50.11 910.615 46.0896C900.909 42.0693 890.506 40 880 40L880 120L960 120Z" fill="#6DA2D2"/>
<path d="M400 40C389.494 40 379.091 42.0693 369.385 46.0896C359.679 50.11 350.86 56.0028 343.431 63.4315C336.003 70.8601 330.11 79.6793 326.09 89.3853C322.069 99.0914 320 109.494 320 120L400 120L400 40Z" fill="#6DA2D2"/>
<path d="M1120 40C1120 50.5058 1122.07 60.9086 1126.09 70.6147C1130.11 80.3207 1136 89.1399 1143.43 96.5685C1150.86 103.997 1159.68 109.89 1169.39 113.91C1179.09 117.931 1189.49 120 1200 120L1200 40L1120 40Z" fill="#6DA2D2"/>
<path d="M640 40C640 50.5058 642.069 60.9086 646.09 70.6147C650.11 80.3207 656.003 89.1399 663.431 96.5685C670.86 103.997 679.679 109.89 689.385 113.91C699.091 117.931 709.494 120 720 120L720 40L640 40Z" fill="#77C87B"/>
<path d="M400 40C400 50.5058 402.069 60.9086 406.09 70.6147C410.11 80.3207 416.003 89.1399 423.431 96.5685C430.86 103.997 439.679 109.89 449.385 113.91C459.091 117.931 469.494 120 480 120L480 40L400 40Z" fill="#77C87B"/>
<path d="M1040 40C1029.49 40 1019.09 42.0693 1009.39 46.0896C999.679 50.11 990.86 56.0028 983.431 63.4315C976.003 70.8601 970.11 79.6793 966.09 89.3853C962.069 99.0914 960 109.494 960 120L1040 120L1040 40Z" fill="#77C87B"/>
<path d="M0 40C-9.18441e-07 50.5058 2.06926 60.9086 6.08964 70.6147C10.11 80.3207 16.0028 89.1399 23.4315 96.5685C30.8601 103.997 39.6793 109.89 49.3853 113.91C59.0914 117.931 69.4942 120 80 120L80 40L0 40Z" fill="#77C87B"/>
<path d="M880 120C880 109.494 877.931 99.0914 873.91 89.3853C869.89 79.6793 863.997 70.8601 856.569 63.4315C849.14 56.0028 840.321 50.11 830.615 46.0896C820.909 42.0693 810.506 40 800 40L800 120L880 120Z" fill="#77C87B"/>
<path d="M320 40C309.494 40 299.091 42.0693 289.385 46.0896C279.679 50.11 270.86 56.0028 263.431 63.4315C256.003 70.8601 250.11 79.6793 246.09 89.3853C242.069 99.0914 240 109.494 240 120L320 120L320 40Z" fill="#77C87B"/>
<path d="M1040 40C1040 50.5058 1042.07 60.9086 1046.09 70.6147C1050.11 80.3207 1056 89.1399 1063.43 96.5685C1070.86 103.997 1079.68 109.89 1089.39 113.91C1099.09 117.931 1109.49 120 1120 120L1120 40L1040 40Z" fill="#77C87B"/>
<path d="M560 40C560 50.5058 562.069 60.9086 566.09 70.6147C570.11 80.3207 576.003 89.1399 583.431 96.5685C590.86 103.997 599.679 109.89 609.385 113.91C619.091 117.931 629.494 120 640 120L640 40L560 40Z" fill="#6DA2D2"/>
<path d="M1280 40C1280 50.5058 1282.07 60.9086 1286.09 70.6147C1290.11 80.3207 1296 89.1399 1303.43 96.5685C1310.86 103.997 1319.68 109.89 1329.39 113.91C1339.09 117.931 1349.49 120 1360 120L1360 40L1280 40Z" fill="#6DA2D2"/>
<path d="M400 120C400 130.506 402.069 140.909 406.09 150.615C410.11 160.321 416.003 169.14 423.431 176.569C430.86 183.997 439.679 189.89 449.385 193.91C459.091 197.931 469.494 200 480 200L480 120L400 120Z" fill="#6DA2D2"/>
<path d="M1040 120C1029.49 120 1019.09 122.069 1009.39 126.09C999.679 130.11 990.86 136.003 983.431 143.431C976.003 150.86 970.11 159.679 966.09 169.385C962.069 179.091 960 189.494 960 200L1040 200L1040 120Z" fill="#6DA2D2"/>
<path d="M6.7435e-06 120C4.95501e-06 141.217 8.42855 161.566 23.4315 176.569C38.4344 191.571 58.7827 200 80 200C101.217 200 121.566 191.571 136.569 176.569C151.571 161.566 160 141.217 160 120L80 120L6.7435e-06 120Z" fill="#6DA2D2"/>
<path d="M800 120C800 141.217 808.429 161.566 823.431 176.569C838.434 191.571 858.783 200 880 200C901.217 200 921.566 191.571 936.569 176.569C951.571 161.566 960 141.217 960 120L880 120L800 120Z" fill="#6DA2D2"/>
<path d="M240 120C240 141.217 248.429 161.566 263.431 176.569C278.434 191.571 298.783 200 320 200C341.217 200 361.566 191.571 376.569 176.569C391.571 161.566 400 141.217 400 120L320 120L240 120Z" fill="#77C87B"/>
<path d="M1040 120C1040 141.217 1048.43 161.566 1063.43 176.569C1078.43 191.571 1098.78 200 1120 200C1141.22 200 1161.57 191.571 1176.57 176.569C1191.57 161.566 1200 141.217 1200 120L1120 120L1040 120Z" fill="#77C87B"/>
<path d="M560 120C560 141.217 568.429 161.566 583.431 176.569C598.434 191.571 618.783 200 640 200C661.217 200 681.566 191.571 696.569 176.569C711.571 161.566 720 141.217 720 120L640 120L560 120Z" fill="#77C87B"/>
<path d="M1280 120C1280 141.217 1288.43 161.566 1303.43 176.569C1318.43 191.571 1338.78 200 1360 200C1381.22 200 1401.57 191.571 1416.57 176.569C1431.57 161.566 1440 141.217 1440 120L1360 120L1280 120Z" fill="#77C87B"/>
<path d="M160 160C160 170.609 164.214 180.783 171.716 188.284C179.217 195.786 189.391 200 200 200C210.609 200 220.783 195.786 228.284 188.284C235.786 180.783 240 170.609 240 160L200 160L160 160Z" fill="#77C87B"/>
<path d="M720 160C720 170.609 724.214 180.783 731.716 188.284C739.217 195.786 749.391 200 760 200C770.609 200 780.783 195.786 788.284 188.284C795.786 180.783 800 170.609 800 160L760 160L720 160Z" fill="#77C87B"/>
<path d="M560 200C560 189.391 555.786 179.217 548.284 171.716C540.783 164.214 530.609 160 520 160C509.391 160 499.217 164.214 491.716 171.716C484.214 179.217 480 189.391 480 200L520 200L560 200Z" fill="#77C87B"/>
<path d="M1280 200C1280 189.391 1275.79 179.217 1268.28 171.716C1260.78 164.214 1250.61 160 1240 160C1229.39 160 1219.22 164.214 1211.72 171.716C1204.21 179.217 1200 189.391 1200 200L1240 200L1280 200Z" fill="#77C87B"/>
<path d="M240 120C240 109.391 235.786 99.2172 228.284 91.7157C220.783 84.2143 210.609 80 200 80C189.391 80 179.217 84.2143 171.716 91.7157C164.214 99.2172 160 109.391 160 120L200 120L240 120Z" fill="#77C87B"/>
<path d="M800 120C800 109.391 795.786 99.2172 788.284 91.7157C780.783 84.2143 770.609 80 760 80C749.391 80 739.217 84.2143 731.716 91.7157C724.214 99.2172 720 109.391 720 120L760 120L800 120Z" fill="#77C87B"/>
<path d="M480 80C480 90.6087 484.214 100.783 491.716 108.284C499.217 115.786 509.391 120 520 120C530.609 120 540.783 115.786 548.284 108.284C555.786 100.783 560 90.6087 560 80L520 80L480 80Z" fill="#77C87B"/>
<path d="M1200 80C1200 90.6087 1204.21 100.783 1211.72 108.284C1219.22 115.786 1229.39 120 1240 120C1250.61 120 1260.78 115.786 1268.28 108.284C1275.79 100.783 1280 90.6087 1280 80L1240 80L1200 80Z" fill="#77C87B"/>
<path d="M160 120C160 130.609 164.214 140.783 171.716 148.284C179.217 155.786 189.391 160 200 160C210.609 160 220.783 155.786 228.284 148.284C235.786 140.783 240 130.609 240 120L200 120L160 120Z" fill="#6DA2D2"/>
<path d="M720 120C720 130.609 724.214 140.783 731.716 148.284C739.217 155.786 749.391 160 760 160C770.609 160 780.783 155.786 788.284 148.284C795.786 140.783 800 130.609 800 120L760 120L720 120Z" fill="#6DA2D2"/>
<path d="M560 160C560 149.391 555.786 139.217 548.284 131.716C540.783 124.214 530.609 120 520 120C509.391 120 499.217 124.214 491.716 131.716C484.214 139.217 480 149.391 480 160L520 160L560 160Z" fill="#6DA2D2"/>
<path d="M1280 160C1280 149.391 1275.79 139.217 1268.28 131.716C1260.78 124.214 1250.61 120 1240 120C1229.39 120 1219.22 124.214 1211.72 131.716C1204.21 139.217 1200 149.391 1200 160L1240 160L1280 160Z" fill="#6DA2D2"/>
<path d="M240 80C240 69.3913 235.786 59.2172 228.284 51.7157C220.783 44.2143 210.609 40 200 40C189.391 40 179.217 44.2143 171.716 51.7157C164.214 59.2172 160 69.3913 160 80L200 80L240 80Z" fill="#6DA2D2"/>
<path d="M800 80C800 69.3913 795.786 59.2172 788.284 51.7157C780.783 44.2143 770.609 40 760 40C749.391 40 739.217 44.2143 731.716 51.7157C724.214 59.2172 720 69.3913 720 80L760 80L800 80Z" fill="#6DA2D2"/>
<path d="M480 40C480 50.6087 484.214 60.7828 491.716 68.2843C499.217 75.7857 509.391 80 520 80C530.609 80 540.783 75.7857 548.284 68.2843C555.786 60.7828 560 50.6087 560 40L520 40L480 40Z" fill="#6DA2D2"/>
<path d="M1200 40C1200 50.6087 1204.21 60.7828 1211.72 68.2843C1219.22 75.7857 1229.39 80 1240 80C1250.61 80 1260.78 75.7857 1268.28 68.2843C1275.79 60.7828 1280 50.6087 1280 40L1240 40L1200 40Z" fill="#6DA2D2"/>
</svg>
