<svg width="50" height="50" viewBox="0 0 50 50" fill="none" xmlns="http://www.w3.org/2000/svg">
<path d="M42.1875 7.8125H7.8125C6.9837 7.8125 6.18884 8.14174 5.60279 8.72779C5.01674 9.31384 4.6875 10.1087 4.6875 10.9375V39.0625C4.6875 39.8913 5.01674 40.6862 5.60279 41.2722C6.18884 41.8583 6.9837 42.1875 7.8125 42.1875H42.1875C43.0163 42.1875 43.8112 41.8583 44.3972 41.2722C44.9833 40.6862 45.3125 39.8913 45.3125 39.0625V10.9375C45.3125 10.1087 44.9833 9.31384 44.3972 8.72779C43.8112 8.14174 43.0163 7.8125 42.1875 7.8125ZM18.75 23.4375C18.75 22.2014 19.1166 20.993 19.8033 19.9652C20.4901 18.9374 21.4662 18.1363 22.6082 17.6633C23.7503 17.1902 25.0069 17.0664 26.2193 17.3076C27.4317 17.5487 28.5453 18.144 29.4194 19.0181C30.2935 19.8922 30.8888 21.0058 31.1299 22.2182C31.3711 23.4306 31.2473 24.6872 30.7742 25.8293C30.3012 26.9713 29.5001 27.9474 28.4723 28.6342C27.4445 29.3209 26.2361 29.6875 25 29.6875C23.3424 29.6875 21.7527 29.029 20.5806 27.8569C19.4085 26.6848 18.75 25.0951 18.75 23.4375ZM14.1738 39.0625C15.2708 37.1619 16.8488 35.5835 18.7493 34.4861C20.6497 33.3888 22.8055 32.811 25 32.811C27.1945 32.811 29.3503 33.3888 31.2507 34.4861C33.1512 35.5835 34.7292 37.1619 35.8262 39.0625H14.1738ZM42.1875 39.0625H39.3223C37.6729 35.2959 34.6077 32.3296 30.7891 30.8047C32.3229 29.6006 33.443 27.9481 33.9936 26.0775C34.5441 24.2068 34.4977 22.211 33.8607 20.368C33.2237 18.525 32.0278 16.9265 30.4396 15.7951C28.8515 14.6636 26.95 14.0556 25 14.0556C23.05 14.0556 21.1485 14.6636 19.5604 15.7951C17.9722 16.9265 16.7763 18.525 16.1393 20.368C15.5023 22.211 15.4559 24.2068 16.0064 26.0775C16.557 27.9481 17.6771 29.6006 19.2109 30.8047C15.3923 32.3296 12.3271 35.2959 10.6777 39.0625H7.8125V10.9375H42.1875V39.0625Z" fill="#2A2D31"/>
</svg>
